Coordinates
version=1
nRows=65
nColumns=12
inDegrees=yes

Units are S.I. units (second, meters, Newtons, ...)
Angles are in degrees

endheader
time	SC_y	SC_z	SC_x	AC_y	AC_z	AC_x	GH_y	GH_z	GH_yy	EL_x	PS_y
       0.0              -39.57          2.041          67.34          59.21         -16.94          7.017          67.33          42.35          79.05          88.79          115.4
  0.002284              -39.57          2.044          67.33          59.21         -16.94          7.018          67.32          42.35          79.02          88.79          115.4
  0.004568              -39.57          2.048          67.32          59.21         -16.94           7.02          67.32          42.36          78.99          88.78          115.4
  0.006852              -39.57          2.052          67.32           59.2         -16.94          7.022          67.31          42.37          78.97          88.78          115.4
  0.009136              -39.57          2.056          67.31           59.2         -16.93          7.024           67.3          42.38          78.94          88.78          115.4
   0.01142              -39.57          2.061           67.3          59.19         -16.93          7.026          67.28          42.38           78.9          88.77          115.3
    0.0137              -39.57          2.065          67.29          59.19         -16.93          7.028          67.27          42.39          78.87          88.77          115.3
   0.01599              -39.57           2.07          67.28          59.18         -16.92           7.03          67.26           42.4          78.83          88.77          115.3
   0.01827              -39.57          2.076          67.27          59.18         -16.92          7.033          67.25          42.41           78.8          88.76          115.3
   0.02056              -39.57          2.082          67.26          59.17         -16.91          7.036          67.23          42.42          78.75          88.76          115.3
   0.02284              -39.57          2.088          67.25          59.17         -16.91          7.039          67.22          42.44          78.71          88.76          115.3
   0.02513              -39.57          2.095          67.24          59.16          -16.9          7.042           67.2          42.45          78.66          88.75          115.2
   0.02741              -39.57          2.102          67.22          59.15          -16.9          7.045          67.18          42.46          78.61          88.75          115.2
   0.02969              -39.57           2.11          67.21          59.14         -16.89          7.049          67.16          42.48          78.55          88.74          115.2
   0.03198              -39.57          2.118          67.19          59.13         -16.88          7.053          67.14          42.49          78.49          88.74          115.2
   0.03426              -39.57          2.128          67.18          59.13         -16.88          7.057          67.12          42.51          78.42          88.73          115.1
   0.03655              -39.57          2.138          67.16          59.12         -16.87          7.062           67.1          42.53          78.35          88.72          115.1
   0.03883              -39.57          2.148          67.14           59.1         -16.86          7.067          67.07          42.55          78.27          88.72          115.1
   0.04111              -39.57           2.16          67.12          59.09         -16.85          7.073          67.04          42.57          78.19          88.71          115.0
    0.0434              -39.56          2.173          67.09          59.08         -16.84          7.079          67.01          42.59           78.1           88.7          115.0
   0.04568              -39.56          2.188          67.07          59.06         -16.83          7.086          66.97          42.62          77.99          88.69          115.0
   0.04797              -39.56          2.204          67.04          59.05         -16.82          7.093          66.93          42.65          77.88          88.68          114.9
   0.05025              -39.56          2.221          67.01          59.03          -16.8          7.101          66.89          42.68          77.76          88.67          114.9
   0.05253              -39.56           2.24          66.97          59.01         -16.79           7.11          66.84          42.72          77.62          88.65          114.8
   0.05482              -39.56          2.262          66.93          58.99         -16.77          7.121          66.79          42.76          77.46          88.64          114.7
    0.0571              -39.56          2.286          66.89          58.96         -16.75          7.132          66.73           42.8          77.29          88.62          114.7
   0.05939              -39.56          2.313          66.84          58.94         -16.73          7.145          66.66          42.85           77.1          88.61          114.6
   0.06167              -39.56          2.343          66.78           58.9         -16.71          7.159          66.59           42.9          76.88          88.58          114.5
   0.06396              -39.55          2.377          66.72          58.87         -16.68          7.175          66.51          42.97          76.64          88.56          114.4
   0.06624              -39.55          2.416          66.65          58.83         -16.65          7.193          66.41          43.04          76.36          88.54          114.3
   0.06852              -39.55           2.46          66.57          58.78         -16.62          7.214           66.3          43.12          76.05          88.51          114.1
   0.07081              -39.55          2.511          66.48          58.73         -16.58          7.238          66.18          43.21          75.68          88.47          114.0
   0.07309              -39.54          2.569          66.37          58.67         -16.53          7.265          66.03          43.32          75.26          88.43          113.8
   0.07538              -39.54          2.637          66.24           58.6         -16.48          7.297          65.87          43.45          74.78          88.39          113.6
   0.07766              -39.54          2.717           66.1          58.52         -16.42          7.335          65.67          43.59          74.21          88.33          113.4
   0.07994              -39.53          2.811          65.93          58.42         -16.35          7.379          65.44          43.77          73.53          88.27          113.1
   0.08223              -39.53          2.922          65.72          58.31         -16.26          7.432          65.17          43.97          72.74          88.19          112.7
   0.08451              -39.52          3.056          65.48          58.17         -16.15          7.495          64.84          44.22          71.78           88.1          112.3
    0.0868              -39.51          3.218          65.18          58.01         -16.03          7.571          64.44          44.51          70.62           88.0          111.8
   0.08908               -39.5          3.415          64.82           57.8         -15.88          7.664          63.95          44.88           69.2          87.86          111.2
   0.09136              -39.49          3.659          64.37          57.55         -15.69          7.779          63.35          45.33          67.46           87.7          110.5
   0.09365              -39.47          3.963          63.82          57.24         -15.45          7.922           62.6          45.89          65.28          87.49          109.6
   0.09593              -39.45          4.346          63.12          56.85         -15.15          8.102          61.66          46.59          62.54          87.24          108.4
   0.09822              -39.43          4.833          62.23          56.35         -14.77          8.332          60.46          47.49          59.05          86.91          107.0
    0.1005               -39.4          5.457          61.09          55.71         -14.29          8.625          58.93          48.64          54.59          86.49          105.1
    0.1028              -39.36          6.257          59.62          54.89         -13.66          9.002          56.96          50.11          48.86          85.95          102.6
    0.1051               -39.3          7.279          57.75          53.84         -12.87          9.483          54.45          51.99          41.54          85.26          99.56
    0.1074              -39.24          8.564           55.4          52.53         -11.87          10.09          51.29          54.35          32.34           84.4          95.67
    0.1096              -39.16          10.13          52.54          50.92         -10.65          10.83          47.44          57.24          21.13          83.34          90.93
    0.1119              -39.07          11.94          49.22          49.06         -9.238          11.68          42.98          60.58          8.139          82.12          85.44
    0.1142              -38.97          13.91          45.62          47.04         -7.708          12.61          38.14          64.19         -5.931           80.8           79.5
    0.1165              -38.87          15.87          42.03          45.03         -6.179          13.53          33.31          67.81          -20.0          79.47          73.55
    0.1188              -38.77          17.69           38.7          43.17         -4.767          14.39          28.85          71.15          -33.0          78.25          68.06
    0.1211              -38.69          19.26          35.84          41.56         -3.548          15.12           25.0          74.03         -44.21           77.2          63.33
    0.1233              -38.63          20.54          33.49          40.24         -2.548          15.73          21.84           76.4         -53.41          76.33          59.44
    0.1256              -38.58          21.56          31.62           39.2         -1.753          16.21          19.32          78.28         -60.72          75.64          56.35
    0.1279              -38.54          22.36          30.16          38.38         -1.131          16.59          17.36          79.75         -66.45           75.1          53.93
    0.1302               -38.5          22.99          29.02          37.74        -0.6455          16.88          15.82           80.9         -70.91          74.68          52.04
    0.1325              -38.48          23.47          28.12          37.24        -0.2665          17.11          14.62          81.79          -74.4          74.36          50.57
    0.1348              -38.46          23.86          27.42          36.84        0.03164          17.29          13.68           82.5         -77.14           74.1          49.41
     0.137              -38.44          24.16          26.87          36.53         0.2683          17.43          12.93          83.06         -79.32          73.89          48.49
    0.1393              -38.43           24.4          26.42          36.28         0.4581          17.55          12.33          83.51         -81.07          73.73          47.75
    0.1416              -38.42           24.6          26.06          36.08         0.6119          17.64          11.85          83.87         -82.48           73.6          47.16
    0.1439              -38.41          24.76          25.76          35.91         0.7378          17.72          11.45          84.17         -83.64          73.49          46.67
    0.1462              -38.41           24.9          25.52          35.78         0.8418          17.78          11.12          84.42          -84.6           73.4          46.26
